<?xml version="1.0" encoding="UTF-8" standalone="no"?>
<!-- Created with Inkscape (http://www.inkscape.org/) -->

<svg
   xmlns:dc="http://purl.org/dc/elements/1.1/"
   xmlns:cc="http://creativecommons.org/ns#"
   xmlns:rdf="http://www.w3.org/1999/02/22-rdf-syntax-ns#"
   xmlns:svg="http://www.w3.org/2000/svg"
   xmlns="http://www.w3.org/2000/svg"
   xmlns:sodipodi="http://sodipodi.sourceforge.net/DTD/sodipodi-0.dtd"
   xmlns:inkscape="http://www.inkscape.org/namespaces/inkscape"
   inkscape:version="0.91 r13725"
   version="1.1"
   id="svg2"
   viewBox="0 0 980.00001 630.00001"
   height="630"
   width="980"
   sodipodi:docname="path.svg">
  <defs
     id="defs4" />
  <sodipodi:namedview
     inkscape:window-maximized="1"
     inkscape:window-y="-8"
     inkscape:window-x="1528"
     inkscape:window-height="841"
     inkscape:window-width="1433"
     inkscape:showpageshadow="false"
     borderlayer="false"
     showborder="true"
     units="px"
     showgrid="false"
     inkscape:current-layer="g4734"
     inkscape:document-units="px"
     inkscape:cy="269.92058"
     inkscape:cx="463.67918"
     inkscape:zoom="0.7"
     inkscape:pageshadow="2"
     inkscape:pageopacity="0.0"
     borderopacity="1.0"
     bordercolor="#666666"
     pagecolor="#ffffff"
     id="base" />
  <metadata
     id="metadata7">
    <rdf:RDF>
      <cc:Work
         rdf:about="">
        <dc:format>image/svg+xml</dc:format>
        <dc:type
           rdf:resource="http://purl.org/dc/dcmitype/StillImage" />
        <dc:title></dc:title>
      </cc:Work>
    </rdf:RDF>
  </metadata>
  <g
     style="display:inline"
     inkscape:label="Layer 1"
     id="g4734"
     inkscape:groupmode="layer">
    <path
       style="color:#000000;font-style:normal;font-variant:normal;font-weight:normal;font-stretch:normal;font-size:medium;line-height:normal;font-family:sans-serif;text-indent:0;text-align:start;text-decoration:none;text-decoration-line:none;text-decoration-style:solid;text-decoration-color:#000000;letter-spacing:normal;word-spacing:normal;text-transform:none;direction:ltr;block-progression:tb;writing-mode:lr-tb;baseline-shift:baseline;text-anchor:start;white-space:normal;clip-rule:nonzero;display:inline;overflow:visible;visibility:visible;opacity:1;isolation:auto;mix-blend-mode:normal;color-interpolation:sRGB;color-interpolation-filters:linearRGB;solid-color:#000000;solid-opacity:1;fill:none;fill-opacity:1;fill-rule:nonzero;stroke:#000000;stroke-width:1;stroke-linecap:butt;stroke-linejoin:miter;stroke-miterlimit:4;stroke-dasharray:none;stroke-dashoffset:0;stroke-opacity:1;color-rendering:auto;image-rendering:auto;shape-rendering:auto;text-rendering:auto;enable-background:accumulate"
       d="m 436.52515,500.49013 c -1.52066,-0.29196 -4.91291,-1.64786 -9.96942,-4.27673 -8.92441,-4.6398 -9.13064,-4.74742 -13.25561,-10.44424 -7.98513,-11.02792 -13.93648,-17.8629 -21.36571,-20.96371 -7.42923,-3.1008 -15.2754,-1.54567 -24.89009,2.30447 -9.1073,3.64695 -16.32072,7.70047 -37.0322,20.74014 -8.13545,5.12196 -21.03354,12.49088 -28.2348,16.14167 -15.79929,8.00967 -20.08887,10.3403 -34.2808,18.61119 -5.63574,3.28444 -13.03531,7.01175 -15.11706,7.79296 -11.45887,4.30014 -45.038,7.95502 -66.19668,6.64177 -16.96776,-1.05312 -35.64728,-5.93688 -46.33517,-11.82106 -3.38004,-1.86086 -11.03195,-5.95097 -17.12055,-9.15307 -23.89715,-12.56795 -34.293127,-20.05714 -37.635975,-25.10881 -1.689554,-2.55323 -2.110854,-3.93726 -2.469366,-8.94833 -0.35985,-5.02957 -0.125191,-6.74146 1.990959,-9.18858 2.116138,-2.44715 7.113401,-5.685 16.343382,-10.55081 11.42712,-6.02409 17.70899,-8.99699 21.05442,-14.17776 1.67271,-2.59038 1.79804,-6.27813 0.60794,-8.90863 -1.19009,-2.63049 -3.06138,-4.68652 -5.38373,-7.13484 -1.3019,-1.37252 -2.61197,-2.89812 -3.60587,-4.17019 -0.9939,-1.27206 -1.75978,-2.72334 -1.53552,-2.15402 -0.79018,-2.00592 -0.60068,-6.59084 1.24931,-11.48052 1.84999,-4.88968 5.12752,-10.04737 9.01257,-13.71812 3.35939,-3.17409 6.64181,-5.63664 16.30788,-11.00208 9.66606,-5.36545 25.49103,-13.45225 53.19175,-27.42789 7.47115,-3.76937 14.8577,-7.589 20.75983,-10.71794 5.90215,-3.12894 10.06039,-5.38082 12.06065,-6.70237 7.04615,-4.65529 11.73151,-10.14245 12.78976,-16.66398 0.30722,-1.89335 0.39524,-4.63025 -0.90042,-6.84025 -1.29567,-2.21002 -2.99812,-3.664 -5.93319,-6.41407 -4.43363,-4.15415 -11.63056,-8.94185 -20.30231,-13.74736 -7.23903,-4.01157 -21.36894,-12.15884 -31.25363,-18.0241 -9.93313,-5.894 -24.80269,-14.68738 -33.05864,-19.54927 -10.31148,-6.07236 -16.76496,-10.49524 -20.29606,-13.95004 -3.5311,-3.45477 -4.2159,-5.37229 -4.2159,-8.4072 0,-3.20021 0.53341,-4.59221 2.97076,-6.67729 2.43737,-2.08507 7.23783,-4.45311 14.98546,-7.10977 6.35304,-2.17847 11.33725,-4.24555 14.99171,-6.29078 1.82723,-1.02262 3.32742,-2.02151 4.58777,-3.23419 1.26034,-1.21268 2.5759,-2.81779 2.5759,-5.30465 0,-2.29354 -0.78319,-3.28134 -1.54387,-4.46476 -0.76067,-1.18341 -1.69887,-2.2987 -2.83079,-3.30731 -2.8021,-2.49682 -4.65045,-6.90566 -4.65045,-13.12477 0,-4.52032 1.05472,-7.01743 3.43874,-9.12383 2.38403,-2.10639 6.69624,-3.86151 13.46246,-4.82203 6.0778,-0.86279 10.18118,-0.5115 13.76329,1.06344 3.58212,1.57493 6.98999,4.58184 11.05367,9.95745 2.37859,3.14649 5.09009,6.58686 6.48054,8.15858 0.87286,0.98667 5.5378,6.58698 9.92135,11.94433 12.55149,15.33976 23.01379,26.14627 30.92772,30.16901 10.95457,5.56834 24.54362,3.72432 40.05728,-4.0887 6.30656,-3.17609 8.81685,-5.65975 11.74101,-11.51184 1.88652,-3.77549 3.15052,-6.90733 3.35725,-10.55916 0.20674,-3.65182 -0.54564,-7.3053 -1.8677,-12.79049 -2.53784,-10.52953 -4.64143,-15.39137 -10.12817,-23.40605 -3.75488,-5.48488 -5.5084,-9.80861 -5.77022,-12.77796 -0.26183,-2.96933 0.44868,-4.73788 2.89763,-6.98232 2.57165,-2.35687 4.25018,-3.26879 7.3559,-3.66667 3.10571,-0.39787 7.83441,0.009 15.19434,1.36221 3.59039,0.65988 10.31674,1.01689 16.32043,1.0509 7.00745,0.0397 11.10427,0.40698 15.00842,-2.04957 1.95208,-1.22827 3.28723,-3.43887 3.78553,-5.44254 0.49831,-2.00368 0.52229,-3.93854 0.52229,-6.23228 0,-3.54375 0.40888,-5.09415 1.32451,-6.38272 0.91563,-1.28855 2.91221,-2.80594 6.99656,-4.83664 4.41512,-2.19517 9.22131,-6.15817 13.69016,-10.56541 4.46887,-4.40727 8.4158,-9.03942 10.53557,-13.36505 1.14781,-2.3422 2.01453,-4.44608 2.33148,-6.99695 0.31697,-2.550881 0.17743,-5.239531 -0.096,-9.677481 -0.33908,-5.50153 -1.08811,-12.147367 -1.86562,-15.750975 -3.43994,-15.943647 4.14807,-32.985883 16.67556,-39.138234 4.9057,-2.409231 4.91826,-2.350429 14.31901,-2.350429 6.06877,0 9.36596,0.355505 11.85173,1.36429 2.48576,1.008784 4.76991,2.872894 8.63026,6.886222 3.03037,3.150472 9.74777,9.331641 15.38029,14.204925 6.43735,5.569605 10.71322,8.982456 15.6498,10.722114 4.93658,1.739657 9.82519,1.360675 16.29116,0.286227 4.30084,-0.714668 12.75286,-1.372646 17.93532,-1.372646 4.51229,0 6.95687,0.09804 8.38582,0.363533 1.42897,0.265469 2.12257,0.602793 4.10727,1.769609 2.33081,1.370287 4.10117,3.327409 4.6567,4.498196 1.33351,2.810323 1.2545,3.434209 -0.12744,5.127063 -1.38192,1.692832 -5.23632,4.152785 -11.81829,6.581185 -2.72618,1.00582 -5.5263,2.20916 -7.93667,3.38252 -2.41035,1.17336 -4.2601,2.11421 -5.85797,3.44729 l -4.71311,3.932 0,16.904251 c 0,8.49862 -0.051,12.20974 -0.94429,14.96959 -0.89333,2.75987 -2.97941,5.68148 -7.90115,12.38726 -2.88947,3.93685 -4.55246,6.09617 -5.6198,8.76448 -1.06736,2.6683 -1.078,5.1367 -1.078,8.43854 0,4.56297 0.45999,8.44014 2.86004,11.65393 2.40005,3.2138 5.91784,4.91561 10.64002,6.76923 16.1397,6.33538 22.72573,15.49864 22.72573,31.13633 0,9.40688 -2.13387,13.37558 -9.54739,18.02411 -4.77302,2.99284 -8.42588,6.02027 -10.50841,10.90806 -2.08254,4.88777 -2.76821,10.90097 -3.70405,21.01801 -1.26439,13.66864 -1.96268,20.67745 -2.85587,24.86436 -0.89319,4.18692 -1.80111,5.65392 -4.32871,9.81747 -2.38203,3.92376 -6.31977,9.42665 -8.08709,11.43455 -1.62247,1.84333 -9.72971,8.14635 -19.51053,14.67501 -9.78081,6.52865 -21.60832,13.81775 -32.13316,19.64119 -9.14243,5.05855 -22.47128,13.11384 -34.16798,20.48317 -5.84835,3.68466 -11.27941,7.19286 -15.57249,10.07235 -4.29307,2.8795 -7.21223,4.87137 -9.0084,6.53523 -2.582,2.39178 -4.25642,5.63929 -4.28275,9.03399 -0.0263,3.39469 1.41079,6.56562 3.61631,9.43721 4.41104,5.74317 12.11004,10.95643 22.95136,16.16465 5.65206,2.71529 12.32714,6.24009 13.86358,7.21006 8.1467,5.14308 19.97392,10.56767 28.24734,12.8678 7.56295,2.10261 9.73671,2.22831 21.21527,0.72289 7.77047,-1.01912 12.23221,-1.46115 14.9374,-1.37266 2.70518,0.0885 3.63317,0.45473 6.0042,1.6923 9.39621,4.90439 70.58208,39.66643 100.52135,57.1498 8.85997,5.17387 17.53086,10.06619 24.39705,13.79961 3.43309,1.86671 6.41309,3.44268 8.76396,4.62981 2.35089,1.18713 3.76596,1.92274 5.33569,2.40891 3.85266,1.19327 9.46412,1.90269 13.9743,1.90752 4.98448,0.005 8.94063,-0.40953 12.27373,-2.63457 3.33309,-2.22505 4.98517,-5.92417 5.90392,-10.05982 2.2195,-9.99066 6.78372,-14.9366 16.15328,-17.66058 6.11108,-1.77664 10.29679,-1.29752 16.26192,1.94929 4.81559,2.62114 15.0196,13.08124 19.93671,21.32306 5.7396,9.6204 12.62126,16.40363 20.68882,19.73104 8.06756,3.3274 17.10095,2.92588 26.0997,-0.89004 7.86474,-3.33504 27.68682,-13.94642 42.61021,-22.68525 38.46583,-22.52478 55.04621,-33.10156 72.4704,-46.26472 16.59749,-12.53862 32.85909,-22.22836 68.22942,-40.58818 9.29724,-4.82596 20.58983,-11.71378 30.1798,-18.14736 4.79498,-3.21679 9.15607,-6.31498 12.64142,-9.00892 3.48535,-2.69394 5.97211,-4.7099 7.66717,-6.97188 9.79797,-13.07511 12.67798,-28.527 8.28972,-44.36348 -2.6563,-9.58616 -4.68044,-13.5268 -14.2605,-27.45296 -4.74116,-6.89202 -8.11503,-11.31505 -11.97498,-14.43892 -3.85997,-3.12387 -8.12737,-4.5742 -13.16372,-5.42373 -13.43375,-2.26603 -26.39965,1.87774 -38.457,11.86284 -10.54288,8.73095 -16.22647,12.45223 -49.2725,32.28335 -18.2127,10.92953 -41.09365,24.78176 -50.91458,30.82504 -10.45972,6.43635 -16.49158,9.9174 -20.61988,11.56826 -4.12829,1.65087 -6.28091,1.73205 -10.8364,1.40608 -8.8546,-0.63358 -16.14407,-4.48207 -33.04193,-18.39808 -11.29829,-9.30456 -17.57576,-14.56892 -21.18185,-18.00947 -3.60608,-3.44056 -4.39911,-4.71185 -5.68038,-7.28319 -3.71462,-7.45467 -1.70219,-17.12915 2.78483,-20.32439 0.1171,-0.0834 2.66451,-1.56811 5.6783,-3.12763 3.01379,-1.5595 6.80036,-3.4413 10.59196,-5.24614 25.60499,-12.18831 56.62009,-28.18149 69.85687,-36.06909 11.01337,-6.56273 20.38308,-15.68578 26.92491,-26.26626 4.92405,-7.96395 7.55932,-15.08214 6.98611,-22.19846 -0.57322,-7.11632 -4.36006,-13.53129 -10.49796,-20.03814 -12.16772,-12.89919 -19.69928,-16.86217 -36.77523,-19.35915 -6.83386,-0.99929 -10.31165,-0.87425 -15.93393,0.5662 -8.78146,2.24982 -21.87583,9.17734 -35.82258,18.37508 -9.86961,6.50891 -40.27464,22.19018 -54.67295,28.11526 -16.8385,6.92925 -26.69365,12.44336 -32.84974,19.17946 -2.6971,2.95124 -4.68669,5.33722 -6.22148,9.26591 -1.53479,3.92868 -2.78318,9.1872 -5.22704,19.35914 -0.69779,2.90436 -1.47369,5.75476 -2.14137,7.93712 -0.33385,1.09118 -0.64362,2.02092 -0.88163,2.66381 -0.238,0.64291 -0.64392,1.22258 -0.1713,0.55575 -0.37539,0.52963 -3.77355,3.92143 -7.31201,6.83817 -3.53846,2.91672 -7.57737,5.8714 -9.75631,7.11813 -2.27184,1.29989 -8.49439,3.95187 -12.77304,5.33598 -7.72951,2.50042 -8.14171,2.48972 -25.06767,2.43191 -11.84619,-0.0405 -18.23977,-0.50229 -23.21668,-2.44862 -4.9769,-1.94632 -9.33102,-5.63056 -16.95759,-13.19372 -9.6537,-9.57346 -13.18487,-14.21511 -16.85522,-21.96655 -3.08292,-6.5107 -2.88109,-5.7306 -2.82245,-16.13748 0.0455,-8.05561 0.562,-12.24222 2.156,-17.90084 2.60838,-9.25967 8.66462,-22.05779 12.56412,-27.16046 2.08106,-2.72318 4.91153,-6.97224 6.65393,-9.98251 4.40963,-7.6183 7.27942,-10.79266 21.07322,-23.31203 6.74169,-6.11882 12.57482,-11.14197 16.87612,-14.57891 2.15066,-1.71848 3.92775,-3.0439 5.1602,-3.86723 0.61622,-0.41166 1.10365,-0.69696 1.33913,-0.8169 0.22715,-0.1157 0.32185,0.0658 -0.80014,0.0898 1.61505,-0.0223 1.86845,-0.35619 2.40043,-0.59127 0.53612,-0.23689 1.04369,-0.50617 1.58985,-0.8169 1.09229,-0.62146 2.30705,-1.40738 3.52228,-2.28774 7.28932,-5.28065 28.50515,-16.12593 35.32747,-18.2184 7.03167,-2.15668 12.28464,-4.26681 16.15536,-6.77341 3.87074,-2.50659 6.78346,-5.97429 6.78346,-10.21442 0,-1.67104 -0.67056,-3.72491 -1.8656,-5.1187 -1.19506,-1.39379 -2.59226,-2.23545 -4.21381,-3.07122 -4.58639,-2.36389 -8.10568,-6.29923 -11.51746,-13.649171 -3.97549,-8.56437 -4.08861,-14.091339 -0.29249,-24.856014 3.55785,-10.088956 6.00908,-14.873574 10.91998,-21.433783 10.93354,-14.605601 28.79474,-22.155622 41.3045,-18.918306 13.54855,3.506139 24.23885,14.007465 30.2383,30.536719 2.79552,7.70204 2.84577,13.701691 0.77298,18.611186 -2.07278,4.909498 -6.47724,9.173828 -14.04742,12.721538 -6.97214,3.26746 -11.98579,6.34642 -15.76678,10.878811 -3.78099,4.5324 -6.03173,10.11754 -8.29182,17.89248 -1.45336,4.99966 -1.62328,9.6613 0.60795,13.50502 2.2312,3.84373 6.75157,5.75175 11.50074,5.75175 5.17633,0 9.99273,-1.37348 14.00355,-4.50028 4.01081,-3.12681 7.1803,-7.68249 10.40812,-13.87272 6.51165,-12.48792 18.62387,-24.849771 29.47576,-30.386291 4.53093,-2.31165 17.54517,-5.3945 23.07253,-5.3945 8.14478,0 23.98634,3.61574 32.42146,7.51301 9.52188,4.39937 17.00818,8.649131 22.18255,12.470831 5.17438,3.82169 7.83054,7.3191 8.37748,9.14472 0.43049,1.43693 0.47754,1.82787 0.4032,2.55308 -0.0743,0.72521 -0.43276,2.06276 -1.32452,4.50864 -0.6385,1.75126 -1.20632,3.55967 -1.63371,5.15422 -0.4274,1.59455 -0.77925,2.57947 -0.77925,4.34567 0,3.3873 2.4226,5.80679 4.85935,7.18081 2.43676,1.37402 5.36593,2.20113 8.84126,2.72231 3.47873,0.52171 7.43469,-0.009 10.54602,-2.40892 3.11133,-2.39955 5.59874,-5.92187 9.28416,-11.51813 9.05028,-13.74272 14.27911,-17.51381 27.01893,-19.72476 8.88584,-1.5421 15.69999,-0.74789 19.78211,1.32041 4.08214,2.06832 5.90811,4.88771 5.90811,10.02012 0,3.09689 -0.8649,5.40997 -3.16923,7.97682 -2.30433,2.56687 -6.23104,5.24389 -12.04811,7.87653 -4.2396,1.91874 -7.4796,3.60436 -9.90464,5.25243 -1.21251,0.82403 -2.22949,1.62398 -3.11909,2.63248 -0.8896,1.00848 -1.84263,2.37021 -1.84263,4.40835 0,2.13102 0.7123,2.65006 1.16366,3.28014 0.45135,0.63008 0.92721,1.1464 1.4624,1.67559 1.07038,1.0584 2.37671,2.12366 3.84194,3.13182 2.3349,1.60654 4.27762,3.9124 5.02648,5.56162 1.08728,4.62754 0,0 1.03539,6.21652"
       id="path4789"
       inkscape:connector-curvature="0"
       sodipodi:nodetypes="cssssssssssssssssssscssssssssssssssssssssssssssssssssssssscssssssssscsssssssssssssssccscssssssssssssssssssssssssssssssssssssssssssssssssssssssscssssssssssssssscsssssssssssssscccssssssssssssssssssssssssssssssscsssssssssssscc" />
    <path
       inkscape:connector-curvature="0"
       id="path4740"
       d="m 205.46875,526.76191 c -16.41943,-1.01903 -34.14686,-5.5651 -45,-11.53991 -3.09375,-1.70315 -10.26563,-5.53709 -15.9375,-8.51986 -22.46695,-11.8151 -32.60037,-18.67181 -36.65931,-24.80527 -1.90428,-2.87757 -2.60812,-5.32084 -2.96346,-10.28726 -0.72468,-10.12824 1.8366,-13.08997 19.26535,-22.27745 21.25374,-11.20379 22.52182,-13.16743 14.18119,-21.95998 -2.62349,-2.76563 -5.15474,-6.00511 -5.625,-7.19884 -2.72273,-6.91143 2.26068,-20.08225 10.56818,-27.93106 6.72038,-6.34931 14.11251,-10.45231 65.92055,-36.58913 13.92187,-7.0235 27.54723,-14.24636 30.27857,-16.05082 6.06488,-4.00675 9.47234,-8.30378 10.21532,-12.88221 0.53245,-3.28115 0.27313,-3.72345 -5.17689,-8.82965 -3.65453,-3.42397 -10.25579,-7.87922 -18.18346,-12.27214 -6.84532,-3.79317 -20.03979,-11.40229 -29.32104,-16.90917 C 187.75,283.20229 173.84733,274.98158 166.13642,270.44093 146.67113,258.97859 141.25,253.67493 141.25,246.09375 c 0,-7.61016 4.64259,-11.5815 19.49069,-16.67263 11.60909,-3.98054 18.00931,-7.56224 18.00931,-10.07841 0,-1.00553 -1.2378,-2.93113 -2.75067,-4.2791 -3.69317,-3.29063 -5.68683,-8.63916 -5.68683,-15.25644 0,-9.99063 5.76627,-15.08509 19.23902,-16.99755 12.19468,-1.73104 18.92345,1.2272 26.95439,11.85025 2.17956,2.88304 4.81798,6.20847 5.86314,7.38982 1.04517,1.18136 5.26392,6.25852 9.375,11.28257 11.59182,14.16607 21.80605,24.21027 27.63095,27.17097 8.7371,4.44091 19.93203,3.17414 33.83847,-3.82904 5.77896,-2.91022 6.53182,-3.64519 9.19662,-8.97794 3.38863,-6.78123 3.51468,-9.00783 1.08149,-19.1025 -2.33086,-9.67018 -3.87773,-13.25125 -8.88023,-20.55816 -7.43391,-10.85833 -8.08045,-18.19032 -2.08828,-23.68173 5.55398,-5.08985 10.46963,-5.71956 24.50818,-3.13959 2.57812,0.47381 9.12878,0.8866 14.55702,0.91735 12.96208,0.0734 14.03673,-0.60275 14.03673,-8.8316 0,-7.33191 1.94185,-10.06449 9.99862,-14.07004 6.72465,-3.34326 17.71905,-14.18547 20.83787,-20.54941 2.04899,-4.18091 2.1948,-5.35434 1.6877,-13.58156 -0.30528,-4.95289 -1.05226,-11.309589 -1.65996,-14.125992 -3.58655,-16.622145 4.05904,-34.307102 17.73526,-41.023222 4.77992,-2.347328 6.28401,-2.606046 15.15051,-2.606046 11.62336,0 14.58887,1.203402 22.03125,8.940284 2.57812,2.680142 8.92891,8.542457 14.11286,13.027367 11.89013,10.286776 14.83152,11.323265 26.5894,9.369567 4.42625,-0.73547 12.26649,-1.337218 17.42274,-1.337218 8.51058,0 9.77436,0.234769 13.70613,2.546152 2.73961,1.610538 4.92273,3.792832 5.94107,5.938832 3.30569,6.966222 -0.52949,11.663982 -13.39814,16.411566 -4.81302,1.77565 -10.08645,4.3426 -11.71875,5.70433 l -2.96781,2.47589 0,13.93036 c 0,15.86567 0.14266,15.42496 -9.04512,27.94243 -5.39167,7.34562 -5.48613,7.58177 -5.48613,13.71408 0,7.97928 1.65165,10.19079 10.08229,13.49991 16.10256,6.32043 23.7849,16.92468 23.7849,32.8313 0,9.64219 -3.06727,15.38994 -10.8002,20.23846 -8.5535,5.36303 -9.69119,8.03308 -11.42948,26.82387 -2.36495,25.56488 -2.51864,26.28525 -7.28127,34.12995 -2.36075,3.88849 -5.95063,8.95395 -7.97748,11.25659 -4.85653,5.5173 -29.41696,21.91036 -49.34751,32.93738 -16.82588,9.3093 -49.78334,30.07246 -54.14063,34.10852 -7.25037,6.71587 0.18237,16.39275 19.84682,25.8391 5.37279,2.58097 11.38648,5.71392 13.36378,6.96213 7.17949,4.53221 18.27686,9.59279 25.34502,11.55773 7.02842,1.9539 7.53087,1.96945 18.24231,0.56471 14.6008,-1.91482 17.05919,-1.83441 21.94944,0.71794 9.31183,4.86007 66.09954,37.14225 94.14326,53.51774 16.5,9.63479 32.32031,18.23641 35.15625,19.11472 2.83594,0.87831 8.18391,1.60016 11.88438,1.60412 8.7463,0.009 11.56078,-1.86944 13.08625,-8.73567 2.30565,-10.37786 8.03503,-16.61697 17.89028,-19.48197 6.52112,-1.89574 11.98186,-1.25185 18.23173,2.14975 5.94849,3.23758 15.15813,13.01174 20.16103,21.39686 10.1374,16.99078 23.43157,22.47354 38.74633,15.97969 6.71879,-2.84893 25.54646,-12.87899 39.375,-20.97623 35.92293,-21.03451 51.22248,-30.79872 67.36167,-42.99043 15.7307,-11.88311 31.22333,-21.10334 64.35708,-38.30122 16.96696,-8.80661 41.96115,-25.57337 45.84211,-30.75209 8.5058,-11.35009 10.9122,-24.23718 7.09678,-38.00559 -2.4332,-8.78051 -3.85242,-11.49891 -12.77307,-24.46575 -8.74581,-12.71268 -12.07594,-15.4076 -20.8728,-16.89138 -11.40664,-1.92398 -22.09407,1.41485 -32.73535,10.22676 -9.97583,8.26088 -15.64605,11.97886 -46.55767,30.52804 -17.01563,10.21058 -38.41838,23.16777 -47.56166,28.79373 -19.6155,12.06963 -22.82555,13.35323 -31.79004,12.71182 -9.33405,-0.66785 -17.18331,-4.95403 -33.1483,-18.10102 -21.14342,-17.41138 -23.52753,-19.68592 -26.14969,-24.94791 -4.27274,-8.57426 -2.51738,-19.49883 3.86308,-24.04212 1.5266,-1.08703 8.64217,-4.76881 15.81238,-8.18171 23.84149,-11.34821 52.92997,-26.36452 64.97998,-33.54453 9.74989,-5.8095 18.0607,-13.91275 23.81693,-23.22209 8.75611,-14.16097 8.03088,-23.16397 -2.78999,-34.63465 -11.15901,-11.82915 -16.4171,-14.59926 -32.05057,-16.88518 -6.236,-0.91182 -8.289,-0.8429 -13.32523,0.44732 -7.12069,1.82424 -19.45809,8.18387 -32.28189,16.64055 -9.86617,6.50626 -37.89366,20.9245 -51.79232,26.64364 -15.5451,6.39663 -24.25911,11.43496 -29.28136,16.93009 -4.99389,5.46411 -5.19825,5.98718 -9.76528,24.99526 -1.34153,5.58347 -2.9672,10.89675 -3.61259,11.80728 -2.13608,3.01361 -12.26423,11.36168 -17.23424,14.20523 -2.6901,1.53912 -8.40348,3.93455 -12.69639,5.3232 -7.33123,2.37143 -8.83031,2.52129 -24.68032,2.46716 -22.31833,-0.0762 -25.95659,-1.49897 -40.36143,-15.78324 -9.15066,-9.07408 -12.94802,-14.04254 -16.55616,-21.66211 -2.92123,-6.16892 -3.07937,-7.04855 -3.0243,-16.8218 0.0435,-7.71088 0.58992,-12.2003 2.16614,-17.79548 2.59661,-9.21734 8.1234,-21.11652 12.41792,-26.73577 1.77329,-2.32031 4.44519,-6.32812 5.93755,-8.90625 4.27916,-7.39247 7.52266,-10.99666 20.47359,-22.75036 12.69156,-11.5183 21.98264,-18.94186 23.7279,-18.95854 0.56717,-0.006 2.7017,-1.21994 4.7434,-2.69894 7.56138,-5.47743 26.60455,-15.28607 34.20011,-17.61557 12.78526,-3.92114 18.61903,-7.69874 18.61903,-12.05656 0,-1.69699 -0.90831,-2.7563 -3.51563,-4.10008 -5.20766,-2.68395 -9.1473,-7.27217 -12.56407,-14.63245 -4.04603,-8.71584 -4.15619,-15.647805 -0.41714,-26.25 3.39222,-9.618749 5.99336,-14.711553 10.77861,-21.103563 11.04682,-14.756082 28.92484,-22.756245 42.81896,-19.160888 14.07079,3.641074 25.07639,14.655759 31.02876,31.054375 5.68719,15.668027 0.8649,27.089193 -14.47233,34.276466 -12.62234,5.91503 -16.23824,10.24926 -20.3498,24.39257 -2.37058,8.15448 0.37544,12.88479 7.47982,12.88479 8.42605,0 13.50315,-3.95785 19.27454,-15.02545 6.50626,-12.47685 18.12465,-24.42597 29.28685,-30.12049 5.36885,-2.738982 17.06543,-5.47906 23.3885,-5.47906 8.6582,0 23.32207,3.388782 31.98751,7.39223 18.12844,8.37536 28.79469,16.25281 30.72347,22.6905 0.92418,3.08466 0.79064,4.38732 -0.93493,9.11985 -1.10721,3.03665 -2.01312,6.41625 -2.01312,7.51022 0,2.42123 3.55188,4.42393 9.40188,5.30119 5.49734,0.82438 7.82768,-0.97274 14.6046,-11.26282 8.72614,-13.24974 15.27965,-17.98707 27.91662,-20.18005 17.69392,-3.07054 28.7019,2.50659 28.7019,14.54163 0,7.58551 -5.10699,13.27399 -16.57737,18.46489 -7.69822,3.48381 -11.54763,6.09976 -11.54763,7.84741 0,0.71356 1.94136,2.63306 4.31413,4.26557 2.72157,1.87249 4.96347,4.39818 6.07316,6.84192 2.19468,4.8331 2.35615,9.02996 0.3474,9.02996 -0.79904,0 -2.68796,0.63872 -4.19759,1.41938 -3.03623,1.5701 -2.59092,2.16627 -4.21107,-5.63755 -0.29284,-1.41052 -1.98555,-3.28951 -4.25272,-4.72071 -4.92118,-3.1066 -7.4404,-7.3408 -7.4448,-12.51292 -0.003,-3.45869 0.49409,-4.57013 3.14441,-7.03125 1.73135,-1.60777 6.05557,-4.09878 9.60937,-5.5356 7.43816,-3.00728 14.89383,-8.1305 15.56453,-10.69524 0.73701,-2.81834 -0.87332,-5.85606 -3.68728,-6.95565 -3.47668,-1.35855 -16.66818,-0.46738 -21.08401,1.42439 -5.32424,2.28092 -9.8971,6.80348 -15.23485,15.06732 -8.8453,13.69419 -14.12243,16.60712 -25.69107,14.18122 -14.10202,-2.95713 -17.52431,-9.42088 -12.62631,-23.84759 1.38287,-4.07317 1.3691,-4.14941 -1.2419,-6.87471 -4.11632,-4.29651 -22.39447,-14.24468 -31.72515,-17.26691 -7.32116,-2.37135 -9.86393,-2.73293 -19.21875,-2.73293 -10.45118,0 -10.99651,0.10332 -17.8125,3.37479 -12.65061,6.07192 -21.50935,14.95108 -28.27934,28.34451 -3.60691,7.13572 -9.16282,13.0751 -14.63873,15.64908 -3.68692,1.73306 -5.56003,1.99848 -11.62556,1.64735 -15.83269,-0.91654 -20.88871,-10.05347 -15.31922,-27.68403 4.14906,-13.13406 9.21655,-18.80605 22.79034,-25.508937 8.10095,-4.000337 10.91779,-6.780151 12.38253,-12.219782 2.58089,-9.584702 -5.18642,-25.495183 -15.95797,-32.688147 -7.38684,-4.932747 -12.27651,-6.179529 -19.20903,-4.897982 -7.26129,1.342323 -12.50806,3.982489 -18.34698,9.232173 -7.22332,6.494396 -12.56418,15.135883 -15.94102,25.792516 -3.44812,10.881586 -3.25945,14.193912 1.29344,22.708459 2.42182,4.52915 3.92016,6.11704 7.69103,8.15063 6.38216,3.44186 7.97301,5.64333 7.97301,11.03334 0,8.66616 -7.01814,14.87384 -22.34258,19.7624 -9.28382,2.96158 -21.95127,9.25081 -33.23353,16.50006 -3.49654,2.24665 -6.58459,4.08482 -6.86234,4.08482 -1.68634,0 -10.9389,7.64319 -23.24896,19.20512 -10.07704,9.46462 -14.94834,14.76194 -16.89705,18.3748 -1.50595,2.79198 -4.11718,6.7769 -5.80274,8.85536 -3.87746,4.78132 -10.17739,17.94398 -12.10122,25.28347 -0.81094,3.09375 -1.7244,9.26021 -2.02993,13.70324 -0.65191,9.48009 0.53315,13.92567 5.8457,21.92937 3.6738,5.53481 19.93022,20.03034 25.65676,22.87763 4.83581,2.4044 19.60845,3.91555 28.35797,2.90083 11.84597,-1.37382 22.20695,-5.02267 29.03365,-10.22483 9.6207,-7.33127 9.88105,-7.76364 13.07833,-21.71889 3.44556,-15.03896 5.86264,-19.82591 13.72395,-27.17978 6.09107,-5.6979 11.49456,-8.64483 33.54074,-18.29237 13.40576,-5.86644 41.81904,-20.66123 47.8125,-24.89595 2.57813,-1.8216 8.12474,-5.29409 12.32582,-7.71665 15.64883,-9.02392 25.20163,-11.46647 38.53377,-9.8527 15.85295,1.9189 24.72582,6.45345 36.722,18.76703 8.12819,8.34325 11.53318,15.53889 11.55788,24.42483 0.0247,8.85826 -1.11289,12.70757 -6.4543,21.84074 -4.98233,8.5192 -15.06959,19.15409 -22.93349,24.17853 -5.99799,3.83225 -54.94554,29.63248 -59.90793,31.57743 -5.07448,1.98888 -21.74219,10.3648 -24.48761,12.3056 -5.68385,4.01804 -3.5602,12.59586 4.91053,19.83452 17.62754,15.06362 31.13417,25.52755 36.18266,28.03164 5.10693,2.53308 6.56724,2.84161 11.8557,2.50487 5.25379,-0.33453 6.98062,-0.97522 13.39442,-4.96961 4.04967,-2.52206 25.6029,-15.58341 47.89605,-29.02521 22.29316,-13.4418 43.31551,-26.5486 46.71635,-29.12621 24.20182,-18.34338 25.00324,-18.70372 41.6569,-18.73034 10.96556,-0.0175 12.09606,0.15553 17.58919,2.6924 6.51345,3.00808 9.87652,6.31563 16.30812,16.03888 13.95732,21.1006 18.80698,37.87289 15.483,53.5472 -1.5702,7.4043 -5.87224,16.63821 -10.34433,22.20314 -2.40889,2.99754 -14.84173,12.42992 -30.12973,22.8584 -1.54687,1.05519 -12.09375,6.76108 -23.4375,12.67978 -32.66804,17.04483 -42.13414,22.71122 -57.95769,34.69343 -8.15799,6.17753 -19.97049,14.48975 -26.25,18.47159 -20.14308,12.77273 -57.84324,34.37761 -73.19807,41.94773 l -14.90576,7.34873 -9.93799,0 c -9.08335,0 -10.36854,-0.22675 -14.94444,-2.63677 -7.2292,-3.80745 -12.87122,-9.37942 -18.68902,-18.45698 -8.60425,-13.42526 -18.18638,-21.59771 -25.25774,-21.54191 -6.52548,0.0515 -13.60577,5.5561 -14.80188,11.50781 -2.12928,10.59499 -10.77631,17.5341 -21.84976,17.5341 -11.41674,0 -19.2965,-3.42424 -51.7389,-22.48377 -20.19194,-11.86253 -44.27394,-25.62179 -79.64137,-45.50312 l -16.3601,-9.19661 -11.05656,1.18877 c -11.54554,1.24135 -20.81531,1.45406 -22.33865,0.51258 -0.49132,-0.30365 -3.21845,-1.15772 -6.06029,-1.89792 -5.71015,-1.4873 -15.04692,-5.9658 -24.50005,-11.75176 -3.39682,-2.07908 -8.475,-4.6403 -11.28483,-5.6916 -6.87418,-2.57195 -18.12213,-10.21753 -22.72545,-15.44717 -9.33734,-10.60777 -7.20522,-21.34263 5.84267,-29.4169 2.91635,-1.80469 11.94915,-7.55612 20.07292,-12.78096 8.12375,-5.22483 20.61346,-12.7435 27.75489,-16.70814 23.97593,-13.31048 39.36232,-23.42054 45.94745,-30.19103 2.42791,-2.49624 6.36041,-7.627 8.73891,-11.40169 l 4.32454,-6.86306 1.25379,-13.76194 c 2.06918,-22.71216 2.92215,-27.89179 5.39757,-32.7768 2.38818,-4.71284 6.54013,-8.86314 11.60313,-11.59849 6.14584,-3.32037 8.12118,-10.6795 5.39759,-20.10869 -2.03815,-7.05611 -7.94985,-13.07516 -15.99378,-16.28419 -13.06703,-5.21292 -17.32557,-10.66082 -17.28929,-22.11787 0.0243,-7.66153 1.76734,-12.0978 7.82242,-19.9087 7.44168,-9.59957 7.6611,-10.32604 7.34751,-24.32684 -0.22852,-10.20269 0.009,-13.02782 1.3304,-15.81207 2.11469,-4.45639 7.26261,-8.072137 16.62559,-11.677329 10.63656,-4.095584 11.26464,-4.476236 9.96657,-6.040311 -2.2962,-2.766748 -10.16772,-3.557943 -19.44162,-1.954146 -10.85326,1.876923 -20.99383,1.915456 -27.09716,0.102963 -5.07415,-1.506863 -13.54808,-8.127684 -27.04305,-21.129214 -6.47607,-6.239269 -8.1671,-7.368305 -12.38632,-8.269855 -5.65195,-1.207692 -12.97725,-0.168197 -17.52286,2.486574 -4.00007,2.336171 -8.51099,8.549543 -10.45401,14.399417 -1.57032,4.727779 -1.56437,5.379576 0.14378,15.749007 0.98006,5.949412 1.78191,14.841554 1.78191,19.760314 0,8.53141 -0.15109,9.2005 -3.28125,14.53125 -4.73626,8.06597 -16.09229,19.2334 -23.20313,22.81775 -3.22265,1.62445 -5.91857,3.26387 -5.99093,3.64317 -0.0724,0.3793 -0.20716,3.10635 -0.29956,6.06014 -0.21464,6.86092 -1.75214,9.64852 -7.0345,12.75405 -3.99507,2.34873 -4.96415,2.50044 -15.97188,2.50044 -6.44531,0 -15.43669,-0.59946 -19.98083,-1.33211 -9.91185,-1.59812 -13.14896,-0.88052 -13.59945,3.01471 -0.21682,1.87471 0.90335,4.27057 4.07427,8.71421 5.50594,7.7159 8.2861,14.53584 10.65738,26.14342 1.53615,7.5196 1.69621,10.08482 0.89853,14.3999 -2.77308,15.001 -12.28169,23.47055 -31.9274,28.43853 -20.01267,5.06078 -33.42298,-1.04371 -50.26225,-22.87982 -7.21336,-9.35384 -9.06696,-11.85232 -17.22498,-23.21759 -5.55886,-7.74428 -10.62793,-12.65289 -14.9073,-14.43545 -6.52393,-2.7175 -20.8915,0.99109 -22.07272,5.69746 -1.16423,4.63869 0.29885,9.76215 3.81642,13.36448 7.36307,7.54046 5.73437,15.03249 -4.58228,21.07845 -2.10008,1.23073 -8.17731,3.75495 -13.50497,5.60939 -11.25436,3.91738 -15.13442,6.33183 -15.13442,9.41771 0,2.77181 5.70392,8.67538 11.75025,12.16153 11.46598,6.61099 51.00857,29.91263 58.0935,34.23332 3.09375,1.8867 8.42664,4.84433 11.85088,6.57249 8.88225,4.48277 20.36391,12.96219 23.9691,17.70163 2.53218,3.32883 3.08627,4.89409 3.08627,8.71843 0,5.36617 -1.52799,8.76587 -6.32754,14.07839 -4.96974,5.5009 -8.85834,7.89378 -30.70371,18.89368 -33.50571,16.8713 -63.82059,33.08109 -68.38563,36.56675 -2.39974,1.83233 -5.09884,4.31116 -5.998,5.5085 -2.79041,3.71575 -6.71012,12.08818 -6.71012,14.33273 0,1.26226 2.07371,4.463 5.05942,7.80916 6.08081,6.81488 7.63604,10.76083 6.2581,15.87811 -1.52356,5.65805 -5.66648,8.95875 -22.09877,17.60625 -16.44208,8.65264 -17.12552,9.36267 -15.91407,16.53318 1.10457,6.53788 8.28771,12.35821 29.12227,23.59711 28.4851,15.36587 36.48266,18.49994 55.69805,21.82691 16.57348,2.86952 53.85668,-0.0738 68.13599,-5.37902 5.77747,-2.14651 13.31404,-6.08565 19.52026,-10.20265 2.0625,-1.36819 9.02344,-5.14449 15.46875,-8.39177 16.58944,-8.3581 23.70113,-12.2353 32.8125,-17.8889 35.95375,-22.30934 42.45716,-25.37888 55.10417,-26.00854 6.95522,-0.34628 8.29314,-0.12574 12.89466,2.12558 5.4604,2.67151 13.90218,11.24988 19.44791,19.76255 2.60947,4.00556 4.29118,5.28397 12.31929,9.36506 10.02852,5.098 11.96418,6.89818 10.29086,9.5706 -1.77276,2.83125 -5.2279,2.16795 -14.90064,-2.86061 -8.42817,-4.38154 -9.82065,-5.4892 -13.78763,-10.96751 -14.7015,-20.30245 -21.1937,-23.012 -38.51722,-16.07532 -8.24848,3.30286 -14.64911,6.89367 -33.9754,19.06054 -7.75103,4.87965 -19.77447,11.75235 -26.71875,15.27266 -14.75294,7.47878 -18.59676,9.56524 -31.84475,17.28555 -5.41406,3.15507 -12.04726,6.56334 -14.74042,7.57394 -12.22533,4.5875 -43.10404,7.7254 -63.54083,6.45704 z"
       style="fill:none" />
  </g>
</svg>
